<svg width="249" height="377" viewBox="0 0 249 377" fill="none" xmlns="http://www.w3.org/2000/svg">
<path d="M489.553 448.126L33.6518 455.814C33.6518 455.814 -8.2783 333.234 33.0058 322.962C74.29 312.69 101.873 340.952 122.314 323.85C142.754 306.748 155.11 260.558 120.921 241.282C90.4983 224.13 71.7878 258.869 23.8247 251.299C-24.1384 243.729 27.9004 114.776 27.9004 114.776C27.9004 114.776 149.735 153.418 197.153 128.679C244.572 103.94 196.286 77.224 209.906 33.9035C223.526 -9.41702 300.975 -0.282087 338.904 24.5462C381.707 52.566 282.402 104.083 323.205 133.735C366.95 165.525 483.802 107.087 483.802 107.087L489.553 448.126Z" fill="#E8DBB2" fill-opacity="0.1"/>
</svg>
